<svg xmlns="http://www.w3.org/2000/svg" viewBox="0 0 32.56 32.56"><defs><style>.cls-1{stroke:#000;}.cls-1,.cls-6{stroke-miterlimit:10;}.cls-2{fill:#1a1a1a;}.cls-3{fill:#666;}.cls-4{fill:#4d4d4d;}.cls-5{fill:#333;}.cls-6,.cls-7{fill:#f3f3f3;}.cls-6{stroke:#f3f3f3;}</style></defs><g id="Layer_2" data-name="Layer 2"><g id="Layer_1-2" data-name="Layer 1"><rect class="cls-1" x="0.5" y="0.5" width="31.56" height="31.56" rx="1.91"/><path class="cls-2" d="M32.06,2.41V13.78L13.79,32.06H2.41A1.91,1.91,0,0,1,.5,30.15V28.64L28.64.5h1.51A1.91,1.91,0,0,1,32.06,2.41Z"/><path d="M32.06,13.78V30.15a1.9,1.9,0,0,1-1.91,1.91H13.79Z"/><path class="cls-3" d="M10.44.5.5,10.45v-8A1.92,1.92,0,0,1,2.41.5Z"/><polygon class="cls-4" points="17.77 0.5 0.5 17.77 0.5 10.45 10.44 0.5 17.77 0.5"/><polygon class="cls-5" points="28.64 0.5 0.5 28.64 0.5 17.77 17.77 0.5 28.64 0.5"/><path class="cls-6" d="M13.68,27.78a6.08,6.08,0,0,1-2.7-.6,5.05,5.05,0,0,1-2-1.67L11.09,24a2.36,2.36,0,0,0,1,1,3.35,3.35,0,0,0,1.56.34A3,3,0,0,0,16,24.35a3.85,3.85,0,0,0,.83-2.64V9.13h2.59V21.72a6.23,6.23,0,0,1-1.5,4.47A5.6,5.6,0,0,1,13.68,27.78Z"/><circle class="cls-7" cx="18.19" cy="4.86" r="1.98"/></g></g></svg>